<?xml version="1.0" encoding="UTF-8"?>
<!DOCTYPE svg PUBLIC "-//W3C//DTD SVG 1.1//EN" "http://www.w3.org/Graphics/SVG/1.1/DTD/svg11.dtd">
<!-- Creator: CorelDRAW X7 -->
<svg xmlns="http://www.w3.org/2000/svg" xml:space="preserve" width="394.304mm" height="162.681mm" version="1.1" style="shape-rendering:geometricPrecision; text-rendering:geometricPrecision; image-rendering:optimizeQuality; fill-rule:evenodd; clip-rule:evenodd"
viewBox="0 0 59443 24525"
 xmlns:xlink="http://www.w3.org/1999/xlink">
 <defs>
  <style type="text/css">
   <![CDATA[
    .str0 {stroke:black;stroke-width:376.882}
    .str1 {stroke:#373435;stroke-width:26.5928}
    .fil1 {fill:none;fill-rule:nonzero}
    .fil2 {fill:black}
    .fil0 {fill:black;fill-rule:nonzero}
   ]]>
  </style>
 </defs>
 <g id="Capa_x0020_1">
  <metadata id="CorelCorpID_0Corel-Layer"/>
  <g id="_2271850235136">
   <polygon class="fil0" points="3478,1313 8454,1195 8118,2798 4925,2874 4237,6158 6758,6098 6423,7700 3902,7760 2912,12487 1131,12529 "/>
   <path class="fil0" d="M10696 12301l-325 -4599 -924 22 -969 4630 -1782 42 2348 -11215 2790 -67c851,-20 1478,206 1881,681 402,474 519,1116 349,1928l-258 1234c-108,512 -309,970 -605,1369 -295,401 -662,718 -1101,951l445 4979 -1849 45 0 0zm-914 -6180l925 -22c347,-8 635,-106 864,-292 228,-186 376,-444 446,-776l272 -1297c69,-332 28,-585 -124,-763 -154,-177 -403,-260 -751,-253l-924 23 -708 3380 0 0z"/>
   <polygon class="fil0" points="15722,1021 20781,901 20446,2503 17168,2582 16514,5706 19119,5643 18784,7246 16178,7307 15492,10592 18769,10514 18434,12116 13374,12237 "/>
   <polygon class="fil0" points="21272,888 26954,752 26618,2355 24668,2402 22656,12015 20874,12057 22887,2444 20937,2491 "/>
  </g>
  <path class="fil1 str0" d="M30696 6055c397,178 671,446 823,805 151,360 171,799 59,1321l-190 891c-171,792 -559,1429 -1165,1915 -606,487 -1335,740 -2187,758l-2974 70 2347 -10938 2824 -66c852,-19 1479,202 1881,664 403,462 519,1090 349,1880l-124 579c-210,980 -757,1687 -1643,2121l0 0zm-1840 -3656l-637 2968 789 -18c426,-11 764,-114 1012,-312 249,-196 415,-494 500,-890l168 -781c70,-322 27,-571 -125,-743 -152,-173 -402,-255 -749,-247l-958 23zm977 5651c85,-395 45,-687 -122,-876 -165,-187 -461,-276 -887,-266l-941 22 -705 3281 1111 -26c346,-8 634,-103 862,-284 230,-182 378,-434 448,-757l234 -1094z"/>
  <path class="fil1 str0" d="M34412 11752c-851,20 -1488,-206 -1912,-677 -422,-472 -549,-1104 -379,-1896l1282 -5970c169,-790 570,-1435 1201,-1932 630,-497 1371,-754 2223,-774 852,-20 1489,206 1911,678 422,471 549,1103 379,1895l-1280 5970c-171,792 -571,1435 -1201,1932 -631,497 -1372,754 -2224,774zm335 -1561c337,-9 621,-109 851,-300 231,-192 383,-461 456,-804l1282 -5969c73,-344 35,-608 -115,-790 -151,-184 -393,-271 -730,-262 -335,7 -619,107 -850,298 -231,192 -383,461 -457,804l-1282 5969c-73,344 -34,608 116,790 150,184 394,271 729,264z"/>
  <path class="fil1 str0" d="M41091 9031l-906 2432 -1782 41 4297 -10983 2387 -56 -397 10893 -1816 43 134 -2414 -1917 44zm2023 -1632l259 -4561 -1705 4594 1446 -33z"/>
  <path class="fil1 str0" d="M49097 11255l-326 -4485 -924 21 -969 4515 -1781 43 2347 -10938 2790 -66c852,-19 1478,201 1881,664 402,462 519,1089 349,1880l-258 1204c-108,500 -309,945 -605,1336 -295,390 -662,699 -1102,927l447 4856 -1849 43zm-915 -6026l925 -22c347,-9 636,-103 864,-284 228,-182 378,-434 446,-757l272 -1266c70,-323 28,-571 -124,-743 -154,-173 -403,-255 -751,-247l-924 21 -708 3298 0 0z"/>
  <path class="fil1 str0" d="M54122 254l2790 -64c852,-20 1479,201 1882,663 402,463 519,1089 348,1881l-1227 5718c-170,792 -557,1432 -1164,1918 -606,484 -1335,737 -2186,757l-2790 65 2347 -10938zm694 9313c348,-8 635,-102 864,-285 228,-181 377,-433 447,-757l1240 -5780c70,-324 28,-571 -124,-744 -153,-173 -403,-254 -751,-247l-924 22 -1676 7812 924 -21 0 0z"/>
  <path class="fil0" d="M49050 15139c0,0 -402,-648 -402,-648 -520,-95 -23171,1177 -24331,1488 -1042,-216 -1894,1249 -1586,2425 284,1176 2390,1608 3029,1199 521,121 1041,216 924,745 -118,528 -948,2016 -3693,1992 -2722,-24 -5752,-1225 -7314,-1560 -3361,408 -7265,3456 -11147,3745 -2084,-457 -3149,-673 -3954,-1969l9136 -1920 -1987 -984 9656 -1824 -15313 73 1869 1512 -3882 287c-189,-1704 143,-3312 474,-4896 119,-529 119,-529 119,-529l58766 -1915c57,1 12,83 10,84 -1430,552 -8414,3125 -10374,2695z"/>
  <path class="fil2 str1" d="M51068 15416c152,0 275,125 275,279 0,154 -123,279 -275,279 -152,0 -276,-125 -276,-279 0,-154 124,-279 276,-279z"/>
  <path class="fil2 str1" d="M52743 15009c152,0 276,125 276,279 0,155 -124,280 -276,280 -152,0 -275,-125 -275,-280 0,-154 123,-279 275,-279z"/>
  <path class="fil2 str1" d="M54332 14562c152,0 276,125 276,280 0,154 -124,279 -276,279 -152,0 -275,-125 -275,-279 0,-155 123,-280 275,-280z"/>
  <path class="fil2 str1" d="M55921 14116c152,0 276,125 276,279 0,154 -124,279 -276,279 -152,0 -275,-125 -275,-279 0,-154 123,-279 275,-279z"/>
  <path class="fil2 str1" d="M57463 13557c152,0 276,125 276,280 0,154 -124,279 -276,279 -152,0 -275,-125 -275,-279 0,-155 123,-280 275,-280z"/>
  <path class="fil2 str1" d="M58864 12967c152,0 275,125 275,279 0,154 -123,279 -275,279 -153,0 -276,-125 -276,-279 0,-154 123,-279 276,-279z"/>
 </g>
</svg>
